Patient4_TMGait_0pt6_01_left_41_EMG.mot
version=1
nRows=26
nColumns=33
inDegrees=no
endheader
time	1LAddLong	2LGlutMax	3LGlutMed	4LIliopsoas	5LSemiMemb	6LBicFemLong	7LRecFem	8LVastMed	9LVastLat	10LGasMed	11LTibAnt	12lTibPost	13LPeroneusLong	14LSol	15LExtDigLong	16LFlexDigLong	17RAddLong	18RGlutMax	19RGlutMed	20RIliopsoas	21RSemiMemb	22RBicFemLong	23RRecFem	24RVastMed	25RVastLat	26RGasMed	27RTibAnt	28RTibPost	29RPeroneusLong	30RSol	31RExtDigLong	32RFlexDigLong
49.88	0.006561	-0.066681	-0.019684	0.000458	0.024261	-0.049133	-0.098419	-0.005951	0.26871	-0.022583	0.072174	0.005798	0.071869	-0.089417	0.057526	0.008392	0.018616	-0.18799	0.61371	-0.084229	-0.17273	0.042572	-0.23575	-0.076141	-0.090332	0.015717	0.064087	-0.00061	-0.47897	-0.17197	-0.009613	-0.007324
49.881	0.011902	-0.059052	-0.044403	0.010681	0.018158	-0.038452	-0.092163	-0.007172	0.25177	-0.022583	0.081329	0.007477	0.065002	-0.069885	0.057068	0.004883	-0.001831	-0.14862	0.57892	-0.11688	-0.21973	0.04837	-0.2623	-0.09491	-0.10727	0.012207	0.038605	-0.019836	0.4512	-0.062714	-0.007629	-0.007935
49.882	0.021515	-0.041199	-0.023499	0.009918	0.009155	-0.025635	-0.11032	-0.002441	0.24857	-0.01709	0.06424	0.008087	0.050201	-0.073853	-0.00946	0.001831	-0.002899	-0.14069	-0.15015	-0.12405	0.003662	-0.055695	-0.41397	-0.22598	-0.16846	0.001526	0.071869	-0.11795	-0.38788	-0.019379	-0.006104	-0.003052
49.883	0.009155	0.009918	0.018921	0.024719	0.01709	-0.001984	-0.089264	-0.004578	0.24429	-0.033417	0.027618	-0.014343	0.045319	-0.07431	-0.060425	0.010223	-0.018921	-0.11017	-0.26901	-0.14771	0.10574	-0.12329	-0.64651	-0.39246	-0.18555	0.000305	0.014954	-0.25665	-0.08667	-0.22797	-0.004578	-0.00824
49.884	0.008545	-0.01358	-0.013123	0.014038	0.005341	0.004272	-0.10284	-0.00946	0.23163	-0.040894	-0.016937	-0.001678	0.069885	-0.063629	-0.049896	0.001526	-0.01709	-0.11246	-0.31433	-0.12863	0.075989	-0.091553	-0.71823	-0.41779	-0.13336	-0.028534	-0.01297	0.14481	0.30365	-0.5751	-0.005035	-0.016022
49.885	0.009613	-0.001221	-0.039063	-0.002441	0.001221	-0.003204	-0.10773	-0.002136	0.21896	-0.028229	-0.00412	0.000763	0.081329	-0.04303	-0.033875	0.001831	0.001221	-0.066376	0.72662	0.01297	0.048676	-0.058441	-0.35294	-0.34012	-0.11002	-0.028839	0.023499	0.087433	-0.024719	-0.3801	-0.00061	-0.018616
49.886	0.005646	-0.019836	-0.048523	-0.010986	-0.012817	-0.005951	-0.10086	-0.001373	0.21042	-0.011292	0.012054	0.002899	0.082245	-0.038757	-0.026855	-0.00351	0.009918	-0.081329	0.73791	0.033875	-0.0177	-0.050812	0.081177	0.059204	-0.04425	-0.023499	0.061493	0.1416	-0.1976	-0.58472	-0.004578	-0.014954
49.887	0.009766	-0.007935	-0.025482	-0.010071	-0.032196	0.00412	-0.10773	-0.000153	0.20111	-0.020142	0.020599	0.003052	0.087891	-0.041809	-0.014496	-0.007019	-0.002441	-0.16861	0.10361	-0.029297	-0.096283	-0.042572	0.24185	0.29678	0.036011	-0.007477	0.058441	0.096893	0.094299	-0.63477	-0.004883	-0.00885
49.888	0.005341	0.010223	0.016937	0.001526	0.026093	-0.009766	-0.07843	-0.002899	0.20126	-0.02655	0.013428	0.000458	0.098419	-0.007935	-0.001984	0.018311	-0.029907	-0.17792	0.073395	0.02182	0.048981	-0.050964	0.16693	0.22415	0.038147	-0.003052	0.059052	0.02533	0.1886	-0.11765	-0.009308	-0.004272
49.889	0.003052	0.054321	-0.043335	0.007172	0.002289	0.003967	-0.10193	0.003662	0.19089	-0.016174	0.010376	-0.008392	0.084534	-0.03418	-0.009308	0.005646	0.002289	-0.1738	-0.024719	0.07431	0.053101	-0.12436	0.39566	0.062103	0.000305	-0.008698	0.064087	-0.001984	-0.063934	0.80139	-0.004578	0
49.89	0.00824	0.0737	-0.054169	0.019836	-0.003052	-0.027161	-0.082855	0.006714	0.18631	-0.028992	0.028381	-0.00061	0.083466	0.062103	0.028534	0.002899	0.026093	-0.19547	-0.20493	0.03891	0.022583	-0.14328	0.62515	0.083618	-0.18509	-0.00824	0.032654	-0.015411	-0.30914	0.83084	-0.006409	-0.009918
49.891	0.016174	0.063019	-0.046844	0.031738	0.040283	-0.029144	-0.056915	-0.003357	0.1944	-0.016479	0.04303	-0.001984	0.061188	0.034027	0.079041	0.007782	0.035095	-0.13397	-0.096588	-0.010834	-0.003052	-0.12772	0.65231	0.11963	-0.21179	-0.014496	0.000763	-0.01358	-0.22492	0.33508	-0.006409	0.005341
49.892	0.019684	0.097961	-0.076904	0.010986	0.019073	-0.051422	-0.081024	-0.001984	0.18585	-0.006409	0.045471	-0.00412	0.040436	0.020752	0.097656	-0.003052	0.030975	-0.15884	0.70053	-0.057831	-0.037689	-0.12695	0.18265	-0.053558	-0.15259	-0.010071	-0.028992	0.016022	-0.1503	0.032501	-0.006561	0.002747
49.893	0.01358	0.14877	-0.09903	-0.000916	-0.00946	-0.046997	-0.059509	-0.000458	0.17975	-0.002289	0.094604	-0.001984	0.034485	-0.018158	0.091095	-0.000153	0.003967	-0.1622	0.28641	-0.013733	-0.11887	-0.04425	-0.30518	-0.06485	0.37293	-0.011902	0.03006	0.037842	-0.078888	-0.049591	-0.005341	-0.007935
49.894	0.005951	0.19547	-0.081329	0.012817	0	-0.031586	-0.056915	-0.006409	0.15915	-0.00946	-0.041504	-0.002899	0.05661	0.005035	0.097656	0.009613	-0.009308	-0.13397	-0.13397	0.008392	-0.16113	-0.029755	-0.47257	0.24002	0.78156	-0.015869	0.1828	-0.26184	-0.093689	0.048218	-0.007172	-0.006714
49.895	-0.000916	0.18249	-0.052338	-0.001373	0.014038	-0.010223	-0.067291	0.001526	0.15213	-0.018311	-0.09613	0.004425	0.047607	0.01358	-0.027924	-0.002899	-0.036926	-0.074768	-0.29511	0.093689	-0.048065	-0.021362	-0.39764	0.42023	0.83817	-0.014038	0.12878	-0.30609	0.011597	-0.083466	-0.007629	-0.002136
49.896	0.005798	0.1767	-0.10315	-0.007324	0.024567	0.009918	-0.052948	-0.001068	0.15518	-0.030975	0.026398	0.002136	0.057983	-0.047607	-0.024567	-0.009308	-0.023499	-0.059814	-0.2063	0.11063	0.11536	-0.08728	-0.12955	0.18051	0.48035	-0.011139	0.083923	0.18188	0.089264	0.015717	-0.006104	-0.010071
49.897	0.002289	0.19104	-0.067139	-0.011749	0.00351	-0.030518	-0.078583	0.002441	0.15427	-0.085297	0.051117	-0.000153	0.050049	-0.083618	-0.020447	-0.002747	0.002289	-0.055542	0.30762	0.097046	0.17319	-0.19012	0.10223	0.044098	0.090942	0.000153	0.084686	0.06897	-0.009918	0.2124	-0.009613	-0.013885
49.898	0.010986	0.20477	-0.062866	-0.002441	-0.037537	-0.072479	-0.069122	-0.00473	0.15488	-0.10834	-0.026398	-0.000916	0.031738	-0.096741	0.018158	0.003357	0.01358	-0.020142	0.77972	-0.079803	0.072632	-0.20157	0.37125	0.020294	-0.36545	0.016327	0.08606	0.015869	-0.19791	0.25681	-0.012207	-0.012207
49.899	0.015106	0.23163	-0.089264	-0.007629	-0.022736	-0.10849	-0.061188	0.001068	0.16373	-0.08194	-0.045624	-0.00351	0.050049	-0.13245	-0.24338	0.011444	0.012512	0.003204	1.0196	-0.1149	-0.12955	-0.21133	0.61295	0.10407	-0.51361	0.030212	0.083771	-0.020447	-0.3833	0.069427	-0.008392	-0.009003
49.9	0.010986	0.20721	-0.043945	0.011597	0.006104	-0.12146	-0.060577	0.00061	0.14664	-0.046082	0.058289	-0.001526	0.044861	-0.056305	-0.067596	-0.004272	0.009613	-0.042877	-0.10056	0.06012	-0.2562	-0.16342	0.50644	-0.049896	-0.27191	0.02594	0.065002	-0.041656	-0.51056	0.025177	-0.008392	-0.007935
49.901	0.009155	0.20218	-0.011749	0.014191	0.028534	-0.09491	-0.057831	0.000763	0.13992	-0.028534	0.053558	0.009918	0.03418	0.11795	-0.036316	0.010071	0.024261	-0.064697	-0.13565	0.10742	-0.23468	-0.11322	0.22003	-0.12131	-0.063477	0.025177	0.027924	-0.014954	-0.36438	-0.070038	-0.008392	-0.009766
49.902	-0.000305	0.2095	0.025177	0.009613	0.023651	-0.072784	-0.055695	0.005188	0.14648	-0.002289	0.019531	-0.00412	0.025787	0.044708	-0.086365	0.006714	-0.016327	0.02121	-0.12054	0.064087	0.26688	-0.077515	0.12726	-0.091553	0.067902	0.012512	0.044098	-0.023499	-0.072632	-0.16876	-0.007019	-0.012665
49.903	0.007935	0.19806	0.072021	0.000458	0.004425	-0.096436	-0.063171	-0.000458	0.13306	0.016937	-0.000458	0.003052	0.056	-0.018311	-0.13107	-0.006104	-0.055542	-0.038452	-0.22827	0.002594	0.007477	0.02594	0.1387	0.024872	0.10361	-0.042725	0.006714	-0.059357	-0.00351	-0.16769	-0.005493	-0.009766
49.904	0.00412	0.18478	-0.010681	-0.007935	-0.041809	-0.10437	-0.052948	-0.000153	0.13763	0.005035	-0.006409	0.003052	0.065918	-0.22217	-0.10101	0.005646	-0.036163	-0.051575	-0.21759	0.023956	-0.097351	-0.052185	-0.013428	-0.066986	0.040436	-0.07019	-0.061493	-0.024872	0.097809	-0.041351	-0.003967	-0.002899
49.905	0.011749	0.15961	-0.03952	0.012054	0.013428	-0.12009	-0.064545	-0.001984	0.12222	0.006256	0.011597	-0.000153	0.023041	-0.36148	-0.058441	-0.001831	-0.022736	-0.011902	0.064392	0.064697	0.17731	-0.16007	-0.21713	-0.11383	-0.009003	-0.046692	-0.061646	0.03006	0.03006	0.06134	-0.007629	-0.00885
